<svg width="35" height="17" viewBox="0 0 35 17" fill="none" xmlns="http://www.w3.org/2000/svg">
<path fill-rule="evenodd" clip-rule="evenodd" d="M26.3399 6.79826V13.3227H25.6372H24.9345L24.5208 12.8897C24.0198 12.3653 23.5688 12.1746 22.8533 12.1844C22.2457 12.1928 21.7391 12.4404 21.2811 12.9529C20.9898 13.279 20.9167 13.3227 20.6633 13.3227C20.4085 13.3227 20.3401 13.2811 20.0606 12.9557C19.1786 11.9289 17.7175 11.8959 16.7947 12.882C16.6292 13.0589 16.4937 13.2305 16.4937 13.2632C16.4937 13.2959 15.3222 13.3218 13.8904 13.3206L11.2872 13.3186L11.1101 13.0662C10.8547 12.7022 10.2472 12.3079 9.78795 12.2081C9.01746 12.0407 8.23055 12.3204 7.68482 12.9557C7.39773 13.2899 7.34205 13.3226 7.06161 13.3206C6.79427 13.3189 6.73031 13.2853 6.57659 13.0662C6.32123 12.7022 5.71367 12.3079 5.25444 12.2081C4.48395 12.0407 3.69703 12.3204 3.15131 12.9557C2.83892 13.3194 2.8322 13.3227 2.40413 13.3227H1.97224V6.79826V0.273804H14.1561H26.3399V6.79826ZM29.4223 4.08987C31.6461 4.38228 31.6438 4.38176 31.9274 4.63296C32.1177 4.8014 32.2606 5.13015 32.8207 6.68742C33.6753 9.06328 33.7068 9.24842 33.7068 11.8867V13.9158H34.0996C34.4223 13.9158 34.5236 13.9484 34.6663 14.0979C34.8964 14.3386 34.8964 14.6794 34.6663 14.9201C34.5054 15.0886 34.4409 15.1021 33.7986 15.102H33.1047L33.1002 14.4904C33.0965 14.0024 33.0611 13.8038 32.9248 13.5081C32.7072 13.036 32.2819 12.5905 31.8297 12.3609C31.3384 12.1115 30.4234 12.1035 29.9503 12.3446C29.4487 12.6003 29.1481 12.9015 28.8873 13.4098C28.6702 13.8327 28.6464 13.9388 28.6444 14.4904L28.6421 15.102H26.9066L25.1711 15.1021V14.509V13.9158H26.0388H26.9066V9.17079V4.42573H27.1545C27.3965 4.42573 27.4024 4.41869 27.4024 4.12916C27.4024 3.93736 27.4337 3.83527 27.491 3.84009C27.5396 3.84416 28.4088 3.95656 29.4223 4.08987ZM28.0399 7.09193V8.57195L28.3056 8.64676C28.4516 8.68783 29.3493 8.92093 30.3005 9.16471C32.7119 9.78283 32.6565 9.83873 31.8866 7.56177C31.5494 6.56471 31.2791 5.88172 31.1807 5.77881C31.0257 5.61637 30.9823 5.61199 29.5307 5.61199H28.0399V7.09193ZM31.4401 12.8265C31.5764 12.8715 31.8484 13.0766 32.0446 13.2823C32.5452 13.8075 32.6835 14.3615 32.4873 15.0564C32.3724 15.4637 31.7855 16.0779 31.3964 16.1982C30.7323 16.4036 30.2028 16.2588 29.7022 15.7348C29.01 15.0103 28.9893 14.0887 29.648 13.3218C30.1064 12.7882 30.7688 12.605 31.4401 12.8265ZM23.5064 12.8265C23.8541 12.9412 24.4471 13.5838 24.5537 13.9615C24.7499 14.6567 24.6115 15.2109 24.1109 15.7348C23.7441 16.1188 23.3853 16.2884 22.9397 16.2884C22.4942 16.2884 22.1354 16.1188 21.7685 15.7348C21.0763 15.0103 21.0556 14.0887 21.7143 13.3218C22.1728 12.7882 22.8351 12.605 23.5064 12.8265ZM18.9729 12.8265C19.3206 12.9412 19.9136 13.5838 20.0202 13.9615C20.2164 14.6567 20.078 15.2109 19.5774 15.7348C19.2106 16.1188 18.8518 16.2884 18.4062 16.2884C17.9607 16.2884 17.6019 16.1188 17.235 15.7348C16.5428 15.0103 16.5221 14.0887 17.1808 13.3218C17.6393 12.7882 18.3016 12.605 18.9729 12.8265ZM9.90589 12.8265C10.2536 12.9412 10.8465 13.5838 10.9531 13.9615C11.1493 14.6567 11.011 15.2109 10.5104 15.7348C10.1435 16.1188 9.78476 16.2884 9.3392 16.2884C8.89364 16.2884 8.53486 16.1188 8.168 15.7348C7.47579 15.0103 7.4551 14.0887 8.11381 13.3218C8.57226 12.7882 9.23458 12.605 9.90589 12.8265ZM5.37238 12.8265C5.72004 12.9412 6.31301 13.5838 6.41962 13.9615C6.61584 14.6567 6.47749 15.2109 5.97689 15.7348C5.61003 16.1188 5.25125 16.2884 4.80569 16.2884C4.36013 16.2884 4.00135 16.1188 3.63449 15.7348C2.94227 15.0103 2.92159 14.0887 3.5803 13.3218C4.03875 12.7882 4.70107 12.605 5.37238 12.8265ZM30.2779 13.9118C30.0919 14.1065 30.0588 14.1966 30.0588 14.509C30.0588 14.8256 30.091 14.9106 30.2903 15.1192C30.4897 15.3279 30.5709 15.3616 30.8734 15.3616C31.1759 15.3616 31.2571 15.3279 31.4564 15.1192C31.655 14.9114 31.688 14.825 31.688 14.5135C31.688 14.1324 31.5074 13.8312 31.1922 13.6862C30.9273 13.5645 30.5118 13.667 30.2779 13.9118ZM22.3442 13.9118C22.1582 14.1065 22.1251 14.1966 22.1251 14.509C22.1251 14.8256 22.1574 14.9106 22.3567 15.1192C22.556 15.3279 22.6373 15.3616 22.9397 15.3616C23.2422 15.3616 23.3235 15.3279 23.5228 15.1192C23.7213 14.9114 23.7544 14.825 23.7544 14.5135C23.7544 14.1324 23.5738 13.8312 23.2585 13.6862C22.9936 13.5645 22.5781 13.667 22.3442 13.9118ZM17.8107 13.9118C17.6247 14.1065 17.5916 14.1966 17.5916 14.509C17.5916 14.8256 17.6238 14.9106 17.8232 15.1192C18.0225 15.3279 18.1038 15.3616 18.4062 15.3616C18.7087 15.3616 18.7899 15.3279 18.9893 15.1192C19.1878 14.9114 19.2208 14.825 19.2208 14.5135C19.2208 14.1324 19.0403 13.8312 18.725 13.6862C18.4601 13.5645 18.0446 13.667 17.8107 13.9118ZM8.74368 13.9118C8.55767 14.1065 8.52459 14.1966 8.52459 14.509C8.52459 14.8256 8.55682 14.9106 8.75615 15.1192C8.95548 15.3279 9.03673 15.3616 9.3392 15.3616C9.64167 15.3616 9.72292 15.3279 9.92225 15.1192C10.1208 14.9114 10.1538 14.825 10.1538 14.5135C10.1538 14.1324 9.97326 13.8312 9.65796 13.6862C9.39311 13.5645 8.97758 13.667 8.74368 13.9118ZM4.21017 13.9118C4.02415 14.1065 3.99107 14.1966 3.99107 14.509C3.99107 14.8256 4.02331 14.9106 4.22264 15.1192C4.42197 15.3279 4.50322 15.3616 4.80569 15.3616C5.10816 15.3616 5.18941 15.3279 5.38874 15.1192C5.5873 14.9114 5.62031 14.825 5.62031 14.5135C5.62031 14.1324 5.43974 13.8312 5.12445 13.6862C4.8596 13.5645 4.44407 13.667 4.21017 13.9118ZM16.1749 14.509V15.1021H13.8727H11.5705V14.509V13.9158H13.8727H16.1749V14.509ZM2.57435 14.509V15.1021H1.88051C1.23824 15.1021 1.17364 15.0885 1.01277 14.9201C0.903114 14.8054 0.838867 14.6534 0.838867 14.509C0.838867 14.3646 0.903114 14.2126 1.01277 14.0979C1.17364 13.9294 1.23824 13.9158 1.88051 13.9158H2.57435V14.509Z" fill="white"/>
</svg>
