<svg width="51" height="35" viewBox="0 0 51 35" fill="none" xmlns="http://www.w3.org/2000/svg">
<path fill-rule="evenodd" clip-rule="evenodd" d="M8.81188 0.68354C8.64156 0.857915 8.62288 1.06087 8.59471 3.04241L8.56379 5.21049H7.92794C6.97884 5.21049 6.91359 5.26566 6.91359 6.06913C6.91359 7.05804 6.83465 7.02501 9.1977 7.02501C11.6292 7.02501 11.6092 7.03254 11.6092 6.11911C11.6092 5.28997 11.5188 5.21049 10.5751 5.21049H9.84833V3.03307C9.84833 0.976585 9.83747 0.845577 9.65268 0.674195C9.39922 0.439124 9.04675 0.443025 8.81188 0.68354ZM7.03098 8.49477C6.8637 8.64992 6.8637 13.384 7.03098 13.5391C7.11491 13.617 7.74031 13.648 9.22509 13.648C10.9825 13.648 11.3254 13.6261 11.4555 13.5055C11.5874 13.3831 11.6092 13.0255 11.6092 10.9833C11.6092 9.25342 11.5771 8.57389 11.4918 8.49477C11.3255 8.34054 7.19728 8.34054 7.03098 8.49477ZM20.2618 11.0415C20.2354 11.105 20.2259 12.1154 20.2403 13.287L20.2666 15.4172L22.5654 15.4416C24.6401 15.4636 24.8762 15.4508 24.9866 15.3108C25.1571 15.0946 25.1616 11.1928 24.9916 11.0351C24.8181 10.8742 20.3284 10.8803 20.2618 11.0415ZM27.1095 11.0415C27.0832 11.105 27.0736 12.1154 27.088 13.287L27.1144 15.4172L29.401 15.4416C31.0056 15.4586 31.7278 15.435 31.8222 15.3624C32.0046 15.222 32.0205 11.2031 31.8393 11.0351C31.6658 10.8742 27.1761 10.8803 27.1095 11.0415ZM2.86708 15.197L2.60931 15.385V18.1843V20.9837L2.86972 21.1736C3.12866 21.3625 3.16564 21.3635 9.32272 21.339C15.1167 21.3159 15.5265 21.3039 15.6899 21.1523C15.8501 21.0038 15.8645 20.7564 15.8645 18.1731V15.3557L15.6336 15.1824C15.4117 15.0157 15.1624 15.0089 9.26373 15.0089C3.20125 15.0089 3.12162 15.0113 2.86708 15.197ZM20.283 16.9747C20.2471 17.0079 20.2177 18.0038 20.2177 19.1877C20.2177 21.0669 20.2374 21.3473 20.3725 21.3954C20.4576 21.4257 21.489 21.4504 22.6643 21.4504C24.4768 21.4504 24.8249 21.4288 24.9553 21.3079C25.0856 21.187 25.109 20.8642 25.109 19.1832C25.109 18.0931 25.0823 17.1366 25.0496 17.0577C24.9977 16.9324 24.6955 16.9141 22.6692 16.9141C21.3926 16.9141 20.3188 16.9414 20.283 16.9747ZM27.1324 16.973C27.0069 17.0894 27.0546 21.2226 27.1828 21.3416C27.3529 21.4993 31.56 21.4951 31.7931 21.3369C31.9441 21.2346 31.9579 21.0156 31.9341 19.0915L31.9078 16.9595L29.5535 16.9353C28.2587 16.9219 27.1691 16.9389 27.1324 16.973ZM33.9801 16.973C33.8546 17.0894 33.9023 21.2226 34.0306 21.3416C34.2006 21.4993 38.4077 21.4951 38.6408 21.3369C38.7918 21.2346 38.8056 21.0156 38.7818 19.0915L38.7555 16.9595L36.4012 16.9353C35.1064 16.9219 34.0169 16.9389 33.9801 16.973ZM40.833 22.2256L40.2693 22.9021H20.1645C3.02741 22.9021 0.051983 22.9208 0.00717932 23.029C-0.0371352 23.1361 4.22185 33.0723 4.6291 33.8119L4.76644 34.0614H23.2866C40.8026 34.0614 41.8147 34.0527 41.9562 33.9026C42.3629 33.4707 50.0634 21.785 50.0164 21.6712C49.9707 21.5609 49.3108 21.5418 45.6796 21.5452L41.3967 21.5492L40.833 22.2256ZM34.1772 25.9637C34.4425 26.1223 34.6284 26.6139 34.5427 26.9305C34.5075 27.0604 34.3481 27.2687 34.1884 27.3933C33.3866 28.019 32.2444 27.1888 32.6952 26.3077C32.9721 25.7664 33.6024 25.6201 34.1772 25.9637ZM39.1473 26.0243C39.8857 26.7091 39.255 27.8127 38.2579 27.5806C37.5359 27.4125 37.2772 26.5615 37.7955 26.0598C38.1499 25.7167 38.7973 25.6997 39.1473 26.0243Z" fill="black"/>
</svg>
