<svg width="35" height="24" viewBox="0 0 35 24" fill="none" xmlns="http://www.w3.org/2000/svg">
<path fill-rule="evenodd" clip-rule="evenodd" d="M6.7444 1.08045C6.62991 1.19768 6.61735 1.33411 6.59841 2.66621L6.57763 4.12371H6.15017C5.51214 4.12371 5.46828 4.16079 5.46828 4.70092C5.46828 5.36572 5.4152 5.34352 7.00377 5.34352C8.63837 5.34352 8.62489 5.34858 8.62489 4.73453C8.62489 4.17714 8.56412 4.12371 7.92971 4.12371H7.44116V2.65993C7.44116 1.27745 7.43386 1.18938 7.30963 1.07417C7.13924 0.916145 6.9023 0.918768 6.7444 1.08045ZM5.54719 6.33157C5.43474 6.43587 5.43474 9.61836 5.54719 9.72265C5.60361 9.77498 6.02404 9.79584 7.02218 9.79584C8.20361 9.79584 8.43411 9.78108 8.52157 9.70003C8.61022 9.61775 8.62489 9.37739 8.62489 8.00449C8.62489 6.84158 8.60332 6.38476 8.54597 6.33157C8.43417 6.22789 5.65899 6.22789 5.54719 6.33157ZM14.4416 8.04364C14.4239 8.08627 14.4175 8.76553 14.4272 9.55316L14.4449 10.9852L15.9902 11.0016C17.3849 11.0164 17.5437 11.0078 17.6179 10.9137C17.7325 10.7683 17.7355 8.14531 17.6212 8.03931C17.5046 7.93117 14.4864 7.93526 14.4416 8.04364ZM19.045 8.04364C19.0273 8.08627 19.0209 8.76553 19.0306 9.55316L19.0483 10.9852L20.5855 11.0016C21.6642 11.013 22.1497 10.9972 22.2131 10.9483C22.3358 10.854 22.3464 8.15227 22.2246 8.03931C22.108 7.93117 19.0898 7.93526 19.045 8.04364ZM2.748 10.8371L2.57471 10.9635V12.8454V14.7272L2.74978 14.855C2.92385 14.9819 2.94871 14.9826 7.08781 14.9661C10.9828 14.9506 11.2583 14.9425 11.3682 14.8406C11.4758 14.7408 11.4856 14.5745 11.4856 12.8378V10.9439L11.3303 10.8273C11.1812 10.7153 11.0135 10.7107 7.04816 10.7107C2.97265 10.7107 2.91911 10.7123 2.748 10.8371ZM14.4559 12.0322C14.4317 12.0545 14.412 12.724 14.412 13.5199C14.412 14.7832 14.4252 14.9717 14.516 15.004C14.5733 15.0244 15.2666 15.041 16.0567 15.041C17.2752 15.041 17.5092 15.0265 17.5968 14.9452C17.6844 14.8639 17.7001 14.6469 17.7001 13.5169C17.7001 12.7841 17.6822 12.1411 17.6602 12.088C17.6254 12.0038 17.4222 11.9915 16.06 11.9915C15.2018 11.9915 14.4799 12.0098 14.4559 12.0322ZM19.0604 12.0311C18.976 12.1093 19.0081 14.8879 19.0943 14.9679C19.2086 15.0739 22.0369 15.0711 22.1936 14.9647C22.2951 14.8959 22.3043 14.7487 22.2883 13.4552L22.2707 12.022L20.688 12.0057C19.8176 11.9968 19.0851 12.0082 19.0604 12.0311ZM23.6638 12.0311C23.5794 12.1093 23.6115 14.8879 23.6977 14.9679C23.812 15.0739 26.6403 15.0711 26.797 14.9647C26.8984 14.8959 26.9077 14.7487 26.8917 13.4552L26.874 12.022L25.2914 12.0057C24.421 11.9968 23.6885 12.0082 23.6638 12.0311ZM28.2706 15.5621L27.8917 16.0169H14.3762C2.85578 16.0169 0.855545 16.0295 0.825426 16.1022C0.795636 16.1743 3.65875 22.8538 3.93252 23.351L4.02485 23.5188H16.4751C28.2502 23.5188 28.9306 23.513 29.0257 23.412C29.2991 23.1217 34.4758 15.266 34.4442 15.1894C34.4135 15.1153 33.9699 15.1025 31.5288 15.1047L28.6496 15.1075L28.2706 15.5621ZM23.7963 18.0751C23.9746 18.1817 24.0996 18.5122 24.042 18.725C24.0184 18.8123 23.9112 18.9524 23.8038 19.0361C23.2648 19.4568 22.4969 18.8986 22.8 18.3064C22.9862 17.9424 23.4099 17.8441 23.7963 18.0751ZM27.1374 18.1158C27.6338 18.5762 27.2098 19.3181 26.5396 19.1621C26.0542 19.049 25.8802 18.477 26.2287 18.1397C26.467 17.909 26.9021 17.8976 27.1374 18.1158Z" fill="white"/>
</svg>
